<svg xmlns="http://www.w3.org/2000/svg" width="400" height="300" viewBox="0 0 400 300">
  <!-- Background pattern -->
  <defs>
    <pattern id="cleaningPattern" x="0" y="0" width="50" height="50" patternUnits="userSpaceOnUse">
      <circle cx="25" cy="25" r="1" fill="#9b59b6" opacity="0.2" />
      <circle cx="10" cy="10" r="1" fill="#9b59b6" opacity="0.15" />
      <circle cx="40" cy="40" r="1" fill="#9b59b6" opacity="0.15" />
      <circle cx="10" cy="40" r="1" fill="#9b59b6" opacity="0.15" />
      <circle cx="40" cy="10" r="1" fill="#9b59b6" opacity="0.15" />
    </pattern>
    
    <linearGradient id="cleaningGradient" x1="0%" y1="0%" x2="100%" y2="100%">
      <stop offset="0%" stop-color="#8e44ad" stop-opacity="0.15" />
      <stop offset="100%" stop-color="#9b59b6" stop-opacity="0.1" />
    </linearGradient>
    
    <!-- Bubble pattern -->
    <pattern id="bubblePattern" x="0" y="0" width="100" height="100" patternUnits="userSpaceOnUse">
      <circle cx="20" cy="20" r="5" fill="#9b59b6" opacity="0.1" />
      <circle cx="50" cy="30" r="3" fill="#9b59b6" opacity="0.1" />
      <circle cx="70" cy="60" r="6" fill="#9b59b6" opacity="0.1" />
      <circle cx="30" cy="70" r="4" fill="#9b59b6" opacity="0.1" />
      <circle cx="80" cy="20" r="3" fill="#9b59b6" opacity="0.1" />
    </pattern>
  </defs>
  
  <!-- Main translucent background -->
  <rect width="400" height="300" fill="url(#cleaningPattern)" opacity="0.3" />
  <rect width="400" height="300" fill="url(#cleaningGradient)" opacity="0.5" />
  <rect width="400" height="300" fill="url(#bubblePattern)" opacity="0.3" />
  
  <!-- Cleaning icons -->
  <g opacity="0.7" transform="translate(50, 50)">
    <!-- Spray bottle -->
    <path d="M20,30 L40,30 L40,100 L20,100 Z" fill="#9b59b6" opacity="0.6" />
    <path d="M25,30 L25,10 L35,10 L35,30" fill="#9b59b6" opacity="0.6" />
    <path d="M30,10 L30,0 L40,0 L45,5 L40,10 Z" fill="#8e44ad" opacity="0.6" />
    <path d="M40,30 L50,40 L50,50 L40,50 Z" fill="#8e44ad" opacity="0.6" />
    <!-- Spray -->
    <path d="M50,45 L70,35 M50,45 L70,45 M50,45 L70,55" stroke="#9b59b6" stroke-width="2" opacity="0.4" />
  </g>
  
  <g opacity="0.7" transform="translate(140, 60)">
    <!-- Vacuum cleaner -->
    <path d="M30,0 L50,0 L50,20 L60,30 L60,80 L20,80 L20,30 L30,20 Z" fill="#9b59b6" opacity="0.6" />
    <rect x="25" y="80" width="30" height="10" rx="5" ry="5" fill="#8e44ad" opacity="0.6" />
    <rect x="35" y="90" width="10" height="20" fill="#8e44ad" opacity="0.6" />
    <ellipse cx="40" cy="110" rx="20" ry="10" fill="#9b59b6" opacity="0.6" />
    <!-- Handle -->
    <path d="M40,10 L70,10 L70,40" stroke="#8e44ad" stroke-width="8" opacity="0.6" fill="none" />
    <circle cx="70" cy="40" r="5" fill="#8e44ad" opacity="0.6" />
  </g>
  
  <g opacity="0.7" transform="translate(240, 60)">
    <!-- Bucket and mop -->
    <path d="M20,30 L20,90 L80,90 L80,30 L70,20 L30,20 Z" fill="#9b59b6" opacity="0.6" />
    <path d="M30,20 L70,20" stroke="#8e44ad" stroke-width="3" />
    <path d="M20,50 L80,50" stroke="#8e44ad" stroke-width="2" opacity="0.5" />
    <!-- Mop -->
    <rect x="45" y="0" width="6" height="90" fill="#8e44ad" opacity="0.6" />
    <path d="M30,90 C30,110 70,110 70,90" fill="#9b59b6" opacity="0.4" />
    <!-- Water in bucket -->
    <path d="M25,60 L75,60 L75,85 L25,85 Z" fill="#8e44ad" opacity="0.3" />
    <path d="M30,65 L40,65 M50,65 L70,65 M25,70 L45,70 M55,70 L75,70" stroke="#9b59b6" stroke-width="1" opacity="0.5" />
  </g>
  
  <g opacity="0.7" transform="translate(70, 160)">
    <!-- Sponge and bubbles -->
    <rect x="10" y="30" width="50" height="20" rx="5" ry="5" fill="#9b59b6" opacity="0.6" />
    <rect x="10" y="40" width="50" height="10" rx="5" ry="5" fill="#8e44ad" opacity="0.6" />
    
    <!-- Bubbles -->
    <circle cx="20" cy="10" r="8" fill="#9b59b6" opacity="0.4" />
    <circle cx="40" cy="15" r="6" fill="#9b59b6" opacity="0.4" />
    <circle cx="55" cy="5" r="5" fill="#9b59b6" opacity="0.4" />
    <circle cx="30" cy="0" r="7" fill="#9b59b6" opacity="0.4" />
  </g>
  
  <g opacity="0.7" transform="translate(180, 170)">
    <!-- Duster -->
    <rect x="30" y="0" width="8" height="60" fill="#8e44ad" opacity="0.6" />
    <path d="M15,60 L55,60 L55,80 L15,80 Z" fill="#9b59b6" opacity="0.6" />
    <path d="M20,80 L15,110 M30,80 L30,110 M40,80 L45,110 M50,80 L52,100" stroke="#9b59b6" stroke-width="3" opacity="0.5" />
  </g>
  
  <!-- Decorative elements -->
  <circle cx="40" cy="270" r="15" fill="#9b59b6" opacity="0.2" />
  <circle cx="350" cy="40" r="20" fill="#8e44ad" opacity="0.2" />
  <circle cx="280" cy="200" r="25" fill="#9b59b6" opacity="0.2" />
  <circle cx="150" cy="260" r="18" fill="#8e44ad" opacity="0.2" />
</svg> 