<svg xmlns="http://www.w3.org/2000/svg" width="400" height="300" viewBox="0 0 400 300">
  <!-- Background pattern -->
  <defs>
    <pattern id="cookingPattern" x="0" y="0" width="50" height="50" patternUnits="userSpaceOnUse">
      <circle cx="25" cy="25" r="1" fill="#e74c3c" opacity="0.2" />
      <circle cx="10" cy="10" r="1" fill="#e74c3c" opacity="0.15" />
      <circle cx="40" cy="40" r="1" fill="#e74c3c" opacity="0.15" />
      <circle cx="10" cy="40" r="1" fill="#e74c3c" opacity="0.15" />
      <circle cx="40" cy="10" r="1" fill="#e74c3c" opacity="0.15" />
    </pattern>
    
    <linearGradient id="cookingGradient" x1="0%" y1="0%" x2="100%" y2="100%">
      <stop offset="0%" stop-color="#c0392b" stop-opacity="0.15" />
      <stop offset="100%" stop-color="#e74c3c" stop-opacity="0.1" />
    </linearGradient>
  </defs>
  
  <!-- Main translucent background -->
  <rect width="400" height="300" fill="url(#cookingPattern)" opacity="0.3" />
  <rect width="400" height="300" fill="url(#cookingGradient)" opacity="0.5" />
  
  <!-- Cooking icons -->
  <g opacity="0.7" transform="translate(60, 50)">
    <!-- Chef hat -->
    <path d="M30,10 C15,10 15,30 30,35 L30,60 L70,60 L70,35 C85,30 85,10 70,10 C70,0 60,-5 50,5 C40,-5 30,0 30,10 Z" fill="#e74c3c" opacity="0.6" />
    <rect x="30" y="60" width="40" height="5" fill="#c0392b" opacity="0.6" />
  </g>
  
  <g opacity="0.7" transform="translate(220, 40)">
    <!-- Pot with steam -->
    <path d="M20,40 L20,30 L100,30 L100,40 M30,40 L30,90 L90,90 L90,40" fill="#e74c3c" opacity="0.6" stroke="#c0392b" stroke-width="2" />
    <path d="M30,40 A35,10 0 0,1 90,40" fill="none" stroke="#c0392b" stroke-width="2" />
    <path d="M50,90 L50,100 L70,100 L70,90" fill="#e74c3c" opacity="0.6" stroke="#c0392b" stroke-width="2" />
    <path d="M40,30 Q45,10 50,30 M60,30 Q65,10 70,30 M80,30 Q85,10 90,30" fill="none" stroke="#e74c3c" stroke-width="3" opacity="0.6" />
  </g>
  
  <g opacity="0.7" transform="translate(30, 150)">
    <!-- Cooking utensils -->
    <rect x="0" y="0" width="5" height="80" fill="#c0392b" opacity="0.6" />
    <rect x="0" y="0" width="20" height="20" rx="10" ry="10" fill="#e74c3c" opacity="0.6" />
    
    <rect x="40" y="0" width="5" height="80" fill="#c0392b" opacity="0.6" />
    <path d="M40,0 L70,0 L55,20 Z" fill="#e74c3c" opacity="0.6" />
    
    <rect x="80" y="0" width="5" height="80" fill="#c0392b" opacity="0.6" />
    <circle cx="95" cy="10" r="15" fill="#e74c3c" opacity="0.6" />
    <circle cx="95" cy="10" r="10" fill="white" opacity="0.2" />
  </g>
  
  <g opacity="0.7" transform="translate(200, 150)">
    <!-- Plate with food -->
    <circle cx="50" cy="50" r="40" fill="#e74c3c" opacity="0.6" />
    <circle cx="50" cy="50" r="30" fill="white" opacity="0.3" />
    <ellipse cx="40" cy="40" rx="10" ry="5" fill="#c0392b" opacity="0.6" />
    <ellipse cx="60" cy="45" rx="8" ry="6" fill="#c0392b" opacity="0.6" />
    <ellipse cx="50" cy="60" rx="15" ry="5" fill="#c0392b" opacity="0.6" />
  </g>
  
  <!-- Decorative elements -->
  <circle cx="50" cy="270" r="15" fill="#e74c3c" opacity="0.2" />
  <circle cx="350" cy="50" r="20" fill="#c0392b" opacity="0.2" />
  <circle cx="150" cy="250" r="25" fill="#e74c3c" opacity="0.2" />
  <circle cx="320" cy="200" r="18" fill="#c0392b" opacity="0.2" />
</svg> 