<svg xmlns="http://www.w3.org/2000/svg" width="400" height="300" viewBox="0 0 400 300">
  <!-- Background pattern -->
  <defs>
    <pattern id="driversPattern" x="0" y="0" width="50" height="50" patternUnits="userSpaceOnUse">
      <circle cx="25" cy="25" r="1" fill="#2ecc71" opacity="0.2" />
      <circle cx="10" cy="10" r="1" fill="#2ecc71" opacity="0.15" />
      <circle cx="40" cy="40" r="1" fill="#2ecc71" opacity="0.15" />
      <circle cx="10" cy="40" r="1" fill="#2ecc71" opacity="0.15" />
      <circle cx="40" cy="10" r="1" fill="#2ecc71" opacity="0.15" />
    </pattern>
    
    <linearGradient id="driversGradient" x1="0%" y1="0%" x2="100%" y2="100%">
      <stop offset="0%" stop-color="#27ae60" stop-opacity="0.15" />
      <stop offset="100%" stop-color="#2ecc71" stop-opacity="0.1" />
    </linearGradient>
  </defs>
  
  <!-- Main translucent background -->
  <rect width="400" height="300" fill="url(#driversPattern)" opacity="0.3" />
  <rect width="400" height="300" fill="url(#driversGradient)" opacity="0.5" />
  
  <!-- Driver services icons -->
  <g opacity="0.7" transform="translate(40, 70)">
    <!-- Car silhouette -->
    <path d="M20,50 L40,20 L100,20 L120,50 L120,80 L20,80 Z" fill="#2ecc71" opacity="0.6" />
    <rect x="30" y="80" width="20" height="10" fill="#27ae60" opacity="0.6" />
    <rect x="90" y="80" width="20" height="10" fill="#27ae60" opacity="0.6" />
    <rect x="40" y="35" width="20" height="15" fill="#27ae60" opacity="0.3" />
    <rect x="80" y="35" width="20" height="15" fill="#27ae60" opacity="0.3" />
    <circle cx="40" cy="90" r="10" fill="#27ae60" opacity="0.6" />
    <circle cx="40" cy="90" r="5" fill="#2ecc71" opacity="0.3" />
    <circle cx="100" cy="90" r="10" fill="#27ae60" opacity="0.6" />
    <circle cx="100" cy="90" r="5" fill="#2ecc71" opacity="0.3" />
  </g>
  
  <g opacity="0.7" transform="translate(220, 60)">
    <!-- Steering wheel -->
    <circle cx="40" cy="40" r="35" fill="#2ecc71" opacity="0.6" />
    <circle cx="40" cy="40" r="25" fill="white" opacity="0.2" />
    <circle cx="40" cy="40" r="5" fill="#27ae60" opacity="0.6" />
    
    <!-- Steering wheel spokes -->
    <rect x="38" y="10" width="4" height="25" fill="#27ae60" opacity="0.6" />
    <rect x="38" y="45" width="4" height="25" fill="#27ae60" opacity="0.6" />
    <rect x="10" y="38" width="25" height="4" fill="#27ae60" opacity="0.6" />
    <rect x="45" y="38" width="25" height="4" fill="#27ae60" opacity="0.6" />
  </g>
  
  <g opacity="0.7" transform="translate(60, 180)">
    <!-- Road elements -->
    <rect x="0" y="0" width="120" height="20" fill="#27ae60" opacity="0.6" />
    <rect x="10" y="8" width="20" height="4" fill="white" opacity="0.7" />
    <rect x="50" y="8" width="20" height="4" fill="white" opacity="0.7" />
    <rect x="90" y="8" width="20" height="4" fill="white" opacity="0.7" />
  </g>
  
  <g opacity="0.7" transform="translate(200, 180)">
    <!-- Map/GPS icon -->
    <rect x="0" y="0" width="70" height="90" rx="5" ry="5" fill="#2ecc71" opacity="0.6" />
    <rect x="5" y="5" width="60" height="70" fill="#27ae60" opacity="0.3" />
    
    <!-- Map roads -->
    <path d="M10,15 L60,15 M10,35 L60,35 M30,5 L30,75 M50,5 L50,75" stroke="white" stroke-width="2" opacity="0.4" />
    
    <!-- Location marker -->
    <circle cx="30" cy="35" r="5" fill="#27ae60" opacity="0.8" />
    <path d="M30,35 L50,55" stroke="#27ae60" stroke-width="2" />
    
    <!-- Controls -->
    <rect x="10" y="80" width="50" height="5" rx="2" ry="2" fill="#27ae60" opacity="0.8" />
  </g>
  
  <g opacity="0.7" transform="translate(310, 80)">
    <!-- Driver figure -->
    <circle cx="20" cy="20" r="15" fill="#27ae60" opacity="0.6" /> <!-- Head -->
    <path d="M20,35 L20,70 M5,45 L35,45 M10,90 L20,70 M30,90 L20,70" stroke="#27ae60" stroke-width="6" stroke-linecap="round" opacity="0.6" /> <!-- Body and limbs -->
  </g>
  
  <!-- Decorative elements -->
  <circle cx="50" cy="270" r="15" fill="#2ecc71" opacity="0.2" />
  <circle cx="350" cy="50" r="20" fill="#27ae60" opacity="0.2" />
  <circle cx="150" cy="220" r="25" fill="#2ecc71" opacity="0.2" />
  <circle cx="270" cy="230" r="18" fill="#27ae60" opacity="0.2" />
</svg> 