<svg xmlns="http://www.w3.org/2000/svg" width="400" height="300" viewBox="0 0 400 300">
  <!-- Background pattern -->
  <defs>
    <pattern id="mechanicsPattern" x="0" y="0" width="50" height="50" patternUnits="userSpaceOnUse">
      <circle cx="25" cy="25" r="1" fill="#f39c12" opacity="0.2" />
      <circle cx="10" cy="10" r="1" fill="#f39c12" opacity="0.15" />
      <circle cx="40" cy="40" r="1" fill="#f39c12" opacity="0.15" />
      <circle cx="10" cy="40" r="1" fill="#f39c12" opacity="0.15" />
      <circle cx="40" cy="10" r="1" fill="#f39c12" opacity="0.15" />
    </pattern>
    
    <linearGradient id="mechanicsGradient" x1="0%" y1="0%" x2="100%" y2="100%">
      <stop offset="0%" stop-color="#e67e22" stop-opacity="0.15" />
      <stop offset="100%" stop-color="#f39c12" stop-opacity="0.1" />
    </linearGradient>
  </defs>
  
  <!-- Main translucent background -->
  <rect width="400" height="300" fill="url(#mechanicsPattern)" opacity="0.3" />
  <rect width="400" height="300" fill="url(#mechanicsGradient)" opacity="0.5" />
  
  <!-- Car maintenance icons -->
  <g opacity="0.7" transform="translate(40, 70)">
    <!-- Car silhouette -->
    <path d="M20,50 L40,20 L100,20 L120,50 L120,80 L20,80 Z" fill="#f39c12" opacity="0.6" />
    <rect x="30" y="80" width="20" height="10" fill="#e67e22" opacity="0.6" />
    <rect x="90" y="80" width="20" height="10" fill="#e67e22" opacity="0.6" />
    <rect x="40" y="35" width="20" height="15" fill="#e67e22" opacity="0.3" />
    <rect x="80" y="35" width="20" height="15" fill="#e67e22" opacity="0.3" />
    <circle cx="40" cy="90" r="10" fill="#e67e22" opacity="0.6" />
    <circle cx="40" cy="90" r="5" fill="#f39c12" opacity="0.3" />
    <circle cx="100" cy="90" r="10" fill="#e67e22" opacity="0.6" />
    <circle cx="100" cy="90" r="5" fill="#f39c12" opacity="0.3" />
  </g>
  
  <g opacity="0.7" transform="translate(230, 60)">
    <!-- Engine elements -->
    <rect x="10" y="10" width="100" height="80" rx="5" ry="5" fill="#f39c12" opacity="0.6" />
    <rect x="20" y="20" width="80" height="60" rx="3" ry="3" fill="#e67e22" opacity="0.4" />
    <circle cx="40" cy="40" r="15" fill="#e67e22" opacity="0.6" />
    <circle cx="40" cy="40" r="7" fill="#f39c12" opacity="0.4" />
    <circle cx="80" cy="40" r="15" fill="#e67e22" opacity="0.6" />
    <circle cx="80" cy="40" r="7" fill="#f39c12" opacity="0.4" />
    <rect x="40" y="70" width="40" height="10" fill="#f39c12" opacity="0.7" />
  </g>
  
  <g opacity="0.7" transform="translate(50, 180)">
    <!-- Tools -->
    <path d="M0,0 L50,0 L50,10 L30,10 L30,90 L20,90 L20,10 L0,10 Z" fill="#f39c12" opacity="0.6" />
    <circle cx="25" cy="25" r="8" fill="#e67e22" opacity="0.6" />
    
    <rect x="70" y="10" width="80" height="15" rx="5" ry="5" fill="#f39c12" opacity="0.6" />
    <rect x="80" y="25" width="5" height="20" fill="#e67e22" opacity="0.6" />
    <rect x="100" y="25" width="5" height="20" fill="#e67e22" opacity="0.6" />
    <rect x="120" y="25" width="5" height="20" fill="#e67e22" opacity="0.6" />
    <rect x="140" y="25" width="5" height="20" fill="#e67e22" opacity="0.6" />
  </g>
  
  <g opacity="0.7" transform="translate(200, 170)">
    <!-- Oil change icon -->
    <path d="M40,0 L60,0 L55,20 L45,20 Z" fill="#f39c12" opacity="0.6" />
    <path d="M35,20 L65,20 L65,80 L35,80 Z" fill="#f39c12" opacity="0.6" />
    <path d="M45,25 Q50,50 55,25" stroke="#e67e22" stroke-width="2" fill="none" opacity="0.8" />
    <path d="M40,35 Q50,60 60,35" stroke="#e67e22" stroke-width="2" fill="none" opacity="0.8" />
    <path d="M40,45 Q50,70 60,45" stroke="#e67e22" stroke-width="2" fill="none" opacity="0.8" />
    <path d="M40,55 Q50,80 60,55" stroke="#e67e22" stroke-width="2" fill="none" opacity="0.8" />
  </g>
  
  <!-- Decorative elements -->
  <circle cx="50" cy="270" r="15" fill="#f39c12" opacity="0.2" />
  <circle cx="350" cy="50" r="20" fill="#e67e22" opacity="0.2" />
  <circle cx="150" cy="220" r="25" fill="#f39c12" opacity="0.2" />
  <circle cx="270" cy="230" r="18" fill="#e67e22" opacity="0.2" />
</svg> 