<svg xmlns="http://www.w3.org/2000/svg" width="400" height="300" viewBox="0 0 400 300">
  <!-- Background pattern -->
  <defs>
    <pattern id="plumbingPattern" x="0" y="0" width="50" height="50" patternUnits="userSpaceOnUse">
      <circle cx="25" cy="25" r="1" fill="#3498db" opacity="0.2" />
      <circle cx="10" cy="10" r="1" fill="#3498db" opacity="0.15" />
      <circle cx="40" cy="40" r="1" fill="#3498db" opacity="0.15" />
      <circle cx="10" cy="40" r="1" fill="#3498db" opacity="0.15" />
      <circle cx="40" cy="10" r="1" fill="#3498db" opacity="0.15" />
    </pattern>
    
    <linearGradient id="plumbingGradient" x1="0%" y1="0%" x2="100%" y2="100%">
      <stop offset="0%" stop-color="#1E90FF" stop-opacity="0.15" />
      <stop offset="100%" stop-color="#3498db" stop-opacity="0.1" />
    </linearGradient>
  </defs>
  
  <!-- Main translucent background -->
  <rect width="400" height="300" fill="url(#plumbingPattern)" opacity="0.3" />
  <rect width="400" height="300" fill="url(#plumbingGradient)" opacity="0.5" />
  
  <!-- Plumbing icons -->
  <g opacity="0.7" transform="translate(40, 60)">
    <!-- Pipe wrench -->
    <path d="M10,10 L40,10 L40,20 L80,20 L80,40 L40,40 L40,50 L10,50 Z" fill="#3498db" opacity="0.6" />
    <path d="M10,20 L30,20 L30,40 L10,40 Z" fill="#1E90FF" opacity="0.6" />
  </g>
  
  <g opacity="0.7" transform="translate(150, 70)">
    <!-- Pipe sections -->
    <path d="M10,20 L100,20 L100,40 L10,40 Z" fill="#3498db" opacity="0.6" />
    <circle cx="30" cy="30" r="15" fill="#1E90FF" opacity="0.6" />
    <circle cx="80" cy="30" r="15" fill="#1E90FF" opacity="0.6" />
    <path d="M30,10 L30,0 L60,0 L60,10 M80,10 L80,0 L110,0 L110,10 M80,50 L80,60 L110,60 L110,50" stroke="#3498db" stroke-width="6" fill="none" opacity="0.6" />
  </g>
  
  <g opacity="0.7" transform="translate(260, 170)">
    <!-- Faucet -->
    <path d="M30,0 L50,0 L50,20 C50,30 40,40 40,40 L40,60 L30,60 L30,40 C30,40 20,30 20,20 L20,0 Z" fill="#3498db" opacity="0.6" />
    <path d="M0,10 L20,10 M60,10 L80,10" stroke="#3498db" stroke-width="8" fill="none" opacity="0.6" />
    <circle cx="40" cy="70" r="5" fill="#1E90FF" opacity="0.6" />
  </g>
  
  <g opacity="0.7" transform="translate(60, 150)">
    <!-- Water drop pattern -->
    <path d="M20,0 C20,0 0,30 0,40 C0,50 10,60 20,60 C30,60 40,50 40,40 C40,30 20,0 20,0 Z" fill="#1E90FF" opacity="0.4" />
    <path d="M80,10 C80,10 60,40 60,50 C60,60 70,70 80,70 C90,70 100,60 100,50 C100,40 80,10 80,10 Z" fill="#1E90FF" opacity="0.4" />
    <path d="M50,30 C50,30 40,50 40,55 C40,62 45,67 50,67 C55,67 60,62 60,55 C60,50 50,30 50,30 Z" fill="#1E90FF" opacity="0.4" />
  </g>
  
  <!-- Decorative elements -->
  <circle cx="50" cy="270" r="15" fill="#3498db" opacity="0.2" />
  <circle cx="350" cy="50" r="20" fill="#1E90FF" opacity="0.2" />
  <circle cx="150" cy="200" r="25" fill="#87CEFA" opacity="0.2" />
  <circle cx="270" cy="230" r="18" fill="#3498db" opacity="0.2" />
</svg> 