<svg width="1440" height="800" viewBox="0 0 1440 800" xmlns="http://www.w3.org/2000/svg">
  <defs>
    <!-- Gradient for waves -->
    <linearGradient id="waveGradient" x1="0%" y1="0%" x2="100%" y2="0%">
      <stop offset="0%" stop-color="#9370DB" stop-opacity="0.08" />
      <stop offset="50%" stop-color="#B19CD9" stop-opacity="0.12" />
      <stop offset="100%" stop-color="#7B68EE" stop-opacity="0.08" />
    </linearGradient>
    
    <!-- Gradient for sparkles -->
    <radialGradient id="sparkleGradient" cx="50%" cy="50%" r="50%" fx="50%" fy="50%">
      <stop offset="0%" stop-color="#FFFFFF" stop-opacity="0.5" />
      <stop offset="100%" stop-color="#FFFFFF" stop-opacity="0" />
    </radialGradient>
    
    <!-- Star shape for clean sparkles -->
    <path id="star" d="M0,-10 L2,-3 L9,-3 L4,1 L6,8 L0,4 L-6,8 L-4,1 L-9,-3 L-2,-3 Z" fill="url(#sparkleGradient)" />
  </defs>
  
  <!-- Background base -->
  <rect width="1440" height="800" fill="#F8F4FF" />
  
  <!-- Wavy decorative elements -->
  <path d="M0,120 C320,80 480,240 720,200 C960,160 1120,240 1440,160 L1440,320 C1120,280 960,360 720,320 C480,280 320,360 0,320 Z" fill="url(#waveGradient)" />
  
  <path d="M0,360 C320,320 480,400 720,360 C960,320 1120,400 1440,360 L1440,520 C1120,480 960,560 720,520 C480,480 320,560 0,520 Z" fill="url(#waveGradient)" />
  
  <path d="M0,560 C320,520 480,600 720,560 C960,520 1120,600 1440,560 L1440,800 C1120,800 960,800 720,800 C480,800 320,800 0,800 Z" fill="url(#waveGradient)" />
  
  <!-- Cleaning sparkles -->
  <use href="#star" x="200" y="150" transform="scale(1.5)" opacity="0.6" />
  <use href="#star" x="800" y="120" transform="scale(1.2)" opacity="0.4" />
  <use href="#star" x="1200" y="250" transform="scale(1.8)" opacity="0.5" />
  <use href="#star" x="400" y="350" transform="scale(1.3)" opacity="0.4" />
  <use href="#star" x="900" y="450" transform="scale(1.6)" opacity="0.6" />
  <use href="#star" x="1300" y="400" transform="scale(1.2)" opacity="0.5" />
  <use href="#star" x="200" y="500" transform="scale(1.5)" opacity="0.5" />
  <use href="#star" x="600" y="600" transform="scale(1.4)" opacity="0.4" />
  <use href="#star" x="1100" y="550" transform="scale(1.7)" opacity="0.6" />
  
  <!-- Subtle cleaning tool silhouettes -->
  <!-- Spray bottle -->
  <path d="M150,700 L170,700 L170,680 C170,680 160,670 160,660 L160,620 L150,620 L150,660 C150,670 140,680 140,680 L140,700 Z" fill="rgba(147, 112, 219, 0.15)" />
  
  <!-- Vacuum -->
  <path d="M1100,700 C1120,680 1140,640 1140,640 L1160,640 L1160,680 L1140,700 Z" fill="rgba(147, 112, 219, 0.15)" />
  <circle cx="1080" cy="720" r="30" fill="rgba(147, 112, 219, 0.15)" />
  
  <!-- Mop -->
  <rect x="600" y="600" width="10" height="100" fill="rgba(147, 112, 219, 0.15)" />
  <path d="M580,700 L630,700 L610,720 L600,720 Z" fill="rgba(147, 112, 219, 0.15)" />
  
  <!-- Bucket -->
  <path d="M350,700 L400,700 L400,740 C400,740 390,760 375,760 C360,760 350,740 350,740 Z" fill="rgba(147, 112, 219, 0.15)" />
  <ellipse cx="375" cy="700" rx="25" ry="5" fill="rgba(147, 112, 219, 0.15)" />
  
  <!-- Bubbles -->
  <circle cx="100" cy="100" r="15" fill="rgba(147, 112, 219, 0.1)" />
  <circle cx="150" cy="200" r="20" fill="rgba(147, 112, 219, 0.08)" />
  <circle cx="1300" cy="150" r="25" fill="rgba(147, 112, 219, 0.06)" />
  <circle cx="1250" cy="300" r="18" fill="rgba(147, 112, 219, 0.09)" />
  <circle cx="300" cy="400" r="22" fill="rgba(147, 112, 219, 0.07)" />
  <circle cx="1200" cy="500" r="15" fill="rgba(147, 112, 219, 0.1)" />
  <circle cx="400" cy="600" r="20" fill="rgba(147, 112, 219, 0.08)" />
</svg> 